<svg xmlns="http://www.w3.org/2000/svg" width="100" height="100" viewBox="0 0 100 100">
  <g id="Group_619" data-name="Group 619" transform="translate(-274 -339)">
    <path id="Path_51" data-name="Path 51" d="M50,0A50,50,0,1,1,0,50,50,50,0,0,1,50,0Z" transform="translate(274 339)" fill="#fbfaff"/>
    <g id="coding" transform="translate(292 357)">
      <g id="Group_343" data-name="Group 343">
        <path id="Path_195" data-name="Path 195" d="M52,2H12a2,2,0,0,0-2,2v7H54V4A2,2,0,0,0,52,2Z" fill="#f0bc5e"/>
        <path id="Path_196" data-name="Path 196" d="M13,26H23V38H13Z" fill="#f0bc5e"/>
        <path id="Path_197" data-name="Path 197" d="M21,14H31v8H21Z" fill="#f0bc5e"/>
      </g>
      <g id="Group_344" data-name="Group 344">
        <path id="Path_198" data-name="Path 198" d="M17,5h2V7H17Z"/>
        <path id="Path_199" data-name="Path 199" d="M21,5h2V7H21Z"/>
        <path id="Path_200" data-name="Path 200" d="M13,5h2V7H13Z"/>
        <path id="Path_201" data-name="Path 201" d="M58,13H55V4a3,3,0,0,0-3-3H12A3,3,0,0,0,9,4v9H6a5.006,5.006,0,0,0-5,5V48a5.006,5.006,0,0,0,5,5H21v4H19a3,3,0,0,0-3,3v3H48V60a3,3,0,0,0-3-3H43V53H58a5.006,5.006,0,0,0,5-5V18A5.006,5.006,0,0,0,58,13Zm-3,6h2V43H55ZM12,3H52a1,1,0,0,1,1,1V43H11V4A1,1,0,0,1,12,3ZM24,45h4v2H25a1,1,0,0,1-1-1Zm6,0h4v2H30Zm6,0h4v1a1,1,0,0,1-1,1H36ZM9,43H7V19H9ZM46,60v1H18V60a1,1,0,0,1,1-1H45A1,1,0,0,1,46,60Zm-5-3H23V53H41Zm20-9a3,3,0,0,1-3,3H6a3,3,0,0,1-3-3V18a3,3,0,0,1,3-3H9v2H7a2,2,0,0,0-2,2V43a2,2,0,0,0,2,2H22v1a3,3,0,0,0,3,3H39a3,3,0,0,0,3-3V45H57a2,2,0,0,0,2-2V19a2,2,0,0,0-2-2H55V15h3a3,3,0,0,1,3,3Z"/>
        <path id="Path_202" data-name="Path 202" d="M45.219,29.625,48.719,34l-3.5,4.375,1.562,1.25L51.281,34l-4.5-5.625Z"/>
        <path id="Path_203" data-name="Path 203" d="M38.781,38.375,35.281,34l3.5-4.375-1.562-1.25L32.719,34l4.5,5.625Z"/>
        <path id="Path_204" data-name="Path 204" d="M34.929,33H49.071v2H34.929Z" transform="translate(2.394 70.761) rotate(-81.837)"/>
        <path id="Path_205" data-name="Path 205" d="M15,20a3,3,0,0,0,3,3h1V21H18a1,1,0,0,1-1-1,2.981,2.981,0,0,0-.78-2A2.976,2.976,0,0,0,17,16a1,1,0,0,1,1-1h1V13H18a3,3,0,0,0-3,3,1,1,0,0,1-1,1H13v2h1A1,1,0,0,1,15,20Z"/>
        <path id="Path_206" data-name="Path 206" d="M29,32a3,3,0,0,0-3-3H25v2h1a1,1,0,0,1,1,1,2.981,2.981,0,0,0,.78,2A2.976,2.976,0,0,0,27,36a1,1,0,0,1-1,1H25v2h1a3,3,0,0,0,3-3,1,1,0,0,1,1-1h1V33H30A1,1,0,0,1,29,32Z"/>
        <path id="Path_207" data-name="Path 207" d="M13,37H23v2H13Z"/>
        <path id="Path_208" data-name="Path 208" d="M13,33H23v2H13Z"/>
        <path id="Path_209" data-name="Path 209" d="M13,29H23v2H13Z"/>
        <path id="Path_210" data-name="Path 210" d="M13,25H23v2H13Z"/>
        <path id="Path_211" data-name="Path 211" d="M21,17H31v2H21Z"/>
        <path id="Path_212" data-name="Path 212" d="M21,21H31v2H21Z"/>
        <path id="Path_213" data-name="Path 213" d="M21,13H31v2H21Z"/>
        <path id="Path_214" data-name="Path 214" d="M35,25H49a2,2,0,0,0,2-2V15a2,2,0,0,0-2-2H35a2,2,0,0,0-2,2v8A2,2,0,0,0,35,25Zm0-10H49v8H35Z"/>
      </g>
    </g>
  </g>
</svg>
