<svg id="Layer_1" enable-background="new 0 0 512 512" height="512" viewBox="0 0 512 512" width="512" xmlns="http://www.w3.org/2000/svg"><g><g><g><g id="XMLID_892_"><g id="XMLID_935_"><g id="XMLID_936_"><g id="XMLID_937_"><g id="XMLID_938_"><g id="XMLID_939_"><g id="XMLID_940_"><g id="XMLID_964_"><g id="XMLID_1620_"><g id="XMLID_1621_"><g id="XMLID_1622_"><g id="XMLID_1623_"><g id="XMLID_1624_"><g id="XMLID_1625_"><g><path d="m512 256c0 132.06-100 240.77-228.41 254.53-9.06.97-33.78-20.753-36.86-20.863-12.53-.44-24.84 20.373-36.86 18.183-119.36-21.72-209.87-126.22-209.87-251.85 0-141.38 114.62-256 256-256s256 114.62 256 256z" fill="#514747"/></g></g></g></g></g></g></g></g></g></g></g></g></g></g></g></g></g><path d="m246.73 489.667c3.08.11 27.8 21.833 36.86 20.863 128.41-13.76 228.41-122.47 228.41-254.53 0-31.853-5.835-62.339-16.466-90.471l-96.785-96.778s-7.393-3.573-16.554.929l-13.131-13.269-116.064 186.089-73.504-69.809-150.854 83.335 83.358 83.974c8.177 20.024 25.504 38.843 25.504 38.843l86.544 86.609-14.178 42.398c12.02 2.19 24.33-18.623 36.86-18.183z" fill="#2b2525"/><path d="m283.59 397v113.53c-9.06.97-18.27 1.47-27.59 1.47-3.1 0-6.19-.06-9.27-.17-12.53-.44-24.84-1.79-36.86-3.98v-110.85z" fill="#fd9827"/><path d="m283.59 397v113.53c-9.06.97-18.27 1.47-27.59 1.47-3.1 0-6.19-.06-9.27-.17v-114.83z" fill="#ef7a06"/><g><path d="m322.28 115.706-20.486-26.799c-5.953-7.788-6.146-18.544-.476-26.54 6.342-8.943 19.055-10.375 27.227-3.066l6.054 5.415 9.939-8.657c7.961-6.933 20.114-5.745 26.581 2.599l5.121 6.607c13.663-7.728 30.097 4.135 27.063 19.537l-6.564 33.323z" fill="#ef7a06"/><path d="m403.904 180.509 11.715 22.7c11.593 22.463 1.169 50.021-22.388 59.188l-28.663 4.825v-82.857z" fill="#ef7a06"/><path d="m399.524 129.114 57.91 35.618h-62.693z" fill="#fd9827"/><path d="m378.305 187.728 79.129-22.996h-62.693z" fill="#ef7a06"/><path d="m363.507 100.174c-23.736 0-46.074 11.225-60.24 30.271l-93.399 125.58-58.535-12.692-62.235 12.692c0 87.852 54.235 159.07 144.901 159.07 56 0 99.589-27.82 123.937-70.133 19.867-34.525 25.905-75.306 17.983-114.343l-6.994-34.466c25.008 0 45.28-20.273 45.28-45.28.002-28-22.698-50.699-50.698-50.699z" fill="#fed940"/><path d="m400.94 182.89c-8.19 8.19-19.51 13.26-32.01 13.26l6.99 34.47c7.92 39.04 1.88 79.82-17.98 114.34-16.58 28.82-42.08 50.91-74.35 62.07-11.47 3.97-23.78 6.56-36.86 7.58v-208.14l56.54-76.03c14.16-19.04 36.5-30.27 60.24-30.27 14 0 26.67 5.67 35.85 14.85s14.85 21.85 14.85 35.85c0 12.51-5.07 23.83-13.27 32.02z" fill="#fdbf2d"/><path d="m119.256 144.456c-50.044 0-90.613 49.951-90.613 111.569h181.226c0-61.617-40.569-111.569-90.613-111.569z" fill="#fd9827"/><ellipse cx="365.959" cy="149.204" fill="#514747" rx="15.528" ry="15.528" transform="matrix(.707 -.707 .707 .707 1.684 302.473)"/></g></g></svg>