<svg id="Layer_1" enable-background="new 0 0 512 512" height="512" viewBox="0 0 512 512" width="512" xmlns="http://www.w3.org/2000/svg"><g><g id="XMLID_10_"><g><g id="XMLID_1609_"><g id="XMLID_1610_"><g id="XMLID_1611_"><g id="XMLID_1612_"><g id="XMLID_1613_"><g id="XMLID_1614_"><g id="XMLID_1615_"><g id="XMLID_1616_"><g id="XMLID_1617_"><g id="XMLID_1618_"><g id="XMLID_1619_"><g id="XMLID_1620_"><g id="XMLID_1621_"><g id="XMLID_1636_"><ellipse cx="256" cy="256" fill="#766e6e" rx="256" ry="250.802"/></g></g></g></g></g></g></g></g></g></g></g></g></g></g></g></g><path d="m512 256c0-21.251-2.709-41.881-7.788-61.587l-80.596-80.596s-32.3-26.499-52.237-32.519l-40.45-40.1c-92.596 71-225.696 20.552-268.129 110.835l27.033 26.665c-20.013 39.098 32.761 211.821 32.761 211.821l115.674 115.674c5.86.393 11.77.609 17.732.609 141.385 0 256-112.288 256-250.802z" fill="#5b5555"/><g><path d="m417.446 152.033h31.754c-42.434-90.283-137.432-83.047-137.432-83.047l19.162-27.788c-41.036 2.373-74.93 13.837-74.93 13.837s-33.894-11.464-74.929-13.837l19.161 27.788s-94.999-7.236-137.432 83.047h31.754s-142.201 192.956 161.446 321.132c303.647-128.176 161.446-321.132 161.446-321.132z" fill="#f9b419"/><path d="m256 473.168v-418.13s33.89-11.47 74.93-13.84l-19.16 27.79s95-7.24 137.43 83.05h-31.75s142.2 192.95-161.45 321.13z" fill="#fd9126"/><path d="m354.924 275.893s-5.922 53.755-43.946 80.473c-5.63 3.96-10.484 8.915-14.089 14.783-6.023 9.818-14.419 16.786-25.889 19.651-3.486.876-8.448-13.018-12.199-13.018h-5.603c-3.75 0-8.713 13.895-12.199 13.02-11.47-2.865-19.867-9.834-25.889-19.652-3.604-5.867-8.459-10.822-14.089-14.783-38.024-26.718-43.946-80.473-43.946-80.473-33.434-12.611-33.981-90.976 19.728-110.157 24.938-8.906 41.637 8.14 55.316 12.547 15.503 4.991 32.257 4.991 47.76 0 13.678-4.407 30.377-21.453 55.316-12.547 53.71 19.18 53.163 97.545 19.729 110.156z" fill="#fedd55"/><path d="m354.92 275.888s-5.92 53.76-43.94 80.48c-5.63 3.96-10.49 8.91-14.09 14.78-6.02 9.82-14.42 16.79-25.89 19.65-3.49.88-8.45-13.02-12.2-13.02h-2.8v-195.75c8.06 0 16.13-1.25 23.88-3.74 13.68-4.41 30.38-21.46 55.32-12.55 53.71 19.18 53.16 97.54 19.72 110.15z" fill="#fbbe2c"/><g><g><g><g><path d="m170.323 231.603s45.974-20.047 59.02 23.445c0 0-48.443 17.751-59.02-23.445z" fill="#8e8282"/></g></g></g><g><g><g><path d="m341.677 231.603s-45.974-20.047-59.02 23.445c-.001 0 48.443 17.751 59.02-23.445z" fill="#766e6e"/></g></g></g></g><g><path d="m271 322.148v68.652c-3.82.96-7.82 1.648-11.93 1.648h-6.14c-4.11 0-8.11-.687-11.93-1.647v-68.653z" fill="#8e8282"/></g><g><path d="m271 322.148v68.65c-3.82.96-7.82 1.65-11.93 1.65h-3.07v-70.3z" fill="#766e6e"/></g><path d="m256 282.948c-25.146 0-39.313 2.608-39.313 17.256 0 7.324 7.836 19.461 15.76 26.689s12.661 12.721 23.552 12.721 15.628-5.493 23.552-12.721c7.925-7.228 15.76-19.365 15.76-26.689.001-14.649-14.165-17.256-39.311-17.256z" fill="#f9b419"/><path d="m295.31 300.208c0 7.32-7.83 19.46-15.76 26.69-3.16 2.88-5.82 5.49-8.55 7.58-4.13 3.15-8.45 5.14-15 5.14v-56.67c25.15 0 39.31 2.61 39.31 17.26z" fill="#fd9126"/></g></g></svg>