<svg xmlns="http://www.w3.org/2000/svg" xmlns:xlink="http://www.w3.org/1999/xlink" viewBox="0 0 1366 768">
  <defs>
    <style>
      .cls-1 {
        clip-path: url(#clip-bgsign1366v2);
      }

      .cls-2 {
        fill: url(#linear-gradient);
      }

      .cls-3 {
        fill: #fff;
      }

      .cls-4 {
        filter: url(#Path_67);
      }
    </style>
    <linearGradient id="linear-gradient" x1="0.458" y1="0.031" x2="0.819" y2="0.739" gradientUnits="objectBoundingBox">
      <stop offset="0" stop-color="#377060"/>
      <stop offset="1" stop-color="#04291a"/>
    </linearGradient>
    <filter id="Path_67" x="-11.756" y="-44.238" width="1395.679" height="838.047" filterUnits="userSpaceOnUse">
      <feOffset dx="3" dy="3" input="SourceAlpha"/>
      <feGaussianBlur stdDeviation="5" result="blur"/>
      <feFlood flood-opacity="0.161"/>
      <feComposite operator="in" in2="blur"/>
      <feComposite in="SourceGraphic"/>
    </filter>
    <clipPath id="clip-bgsign1366v2">
      <rect width="1366" height="768"/>
    </clipPath>
  </defs>
  <g id="bgsign1366v2" class="cls-1">
    <rect class="cls-3" width="1366" height="768"/>
    <g class="cls-4" transform="matrix(1, 0, 0, 1, 0, 0)">
      <path id="Path_67-2" data-name="Path 67" class="cls-2" d="M-1252.077-9157.494c-1.472.555-211.271,1.425-420.733,1.287-210.857-.139-478.57,0-478.57,0s300.734-105.192,413.2-96.253c137.019,10.891,236.864,28.355,254.358,29.439,55.609,3.446,104.478-21.549,118.9-29.439,32.876-17.986,53.5-57.309,58.254-67.8,21.569-47.624-11.121-76.578-11.121-121.153,0-31.4,34.352-44.807,31.863-99.57-.448-9.858-1.687-26.141-1.687-26.141s-11.206-50.583-40.132-93.345c-49.2-72.733-127.823-121.631-127.823-121.631s-47.238-38.339-107.164-61.579-88.751-26.411-132.54-31.383c-164.681-18.7-250.592,62.3-367.091,68.057-67.686,3.343-111.414-52.089-249.815-83.52-25.992-5.9-71.38-13.039-108.608-10.235a271.72,271.72,0,0,0-74.748,16.985c-60.9,15.846-122.219,76.826-122.219,76.826v-157.29l1365.679,4.291v802.452Z" transform="translate(2618 9932)"/>
    </g>
  </g>
</svg>
