<svg xmlns="http://www.w3.org/2000/svg" xmlns:xlink="http://www.w3.org/1999/xlink" viewBox="0 0 1280 800">
  <defs>
    <style>
      .cls-1 {
        clip-path: url(#clip-sign_in_7);
      }

      .cls-2 {
        fill: url(#linear-gradient);
      }

      .cls-3 {
        fill: #fff;
      }

      .cls-4 {
        filter: url(#Path_67);
      }
    </style>
    <linearGradient id="linear-gradient" x1="0.458" y1="0.031" x2="0.819" y2="0.739" gradientUnits="objectBoundingBox">
      <stop offset="0" stop-color="#377060"/>
      <stop offset="1" stop-color="#04291a"/>
    </linearGradient>
    <filter id="Path_67" x="-12.756" y="-26.236" width="1310.756" height="844.236" filterUnits="userSpaceOnUse">
      <feOffset dx="3" dy="3" input="SourceAlpha"/>
      <feGaussianBlur stdDeviation="5" result="blur"/>
      <feFlood flood-opacity="0.161"/>
      <feComposite operator="in" in2="blur"/>
      <feComposite in="SourceGraphic"/>
    </filter>
    <clipPath id="clip-sign_in_7">
      <rect width="1280" height="800"/>
    </clipPath>
  </defs>
  <g id="sign_in_7" data-name="sign in – 7" class="cls-1">
    <rect class="cls-3" width="1280" height="800"/>
    <g class="cls-4" transform="matrix(1, 0, 0, 1, 0, 0)">
      <path id="Path_67-2" data-name="Path 67" class="cls-2" d="M-1337-9150.519c-1.38.583-198.028.584-394.465.439-197.745-.146-395.28-.439-395.28-.439s228.4-74.568,333.866-65.167c128.5,11.453,222.135,29.821,238.541,30.961,52.151,3.624,97.982-22.662,111.507-30.961,30.832-18.916,50.176-60.27,54.631-71.3,20.228-50.085-10.429-80.534-10.429-127.413,0-33.021,32.216-47.121,29.881-104.715-.42-10.366-1.583-27.49-1.583-27.49s-10.509-53.2-37.636-98.168c-46.14-76.491-119.874-127.914-119.874-127.914s-44.3-40.32-100.5-64.762-83.232-27.774-124.3-33c-154.441-19.664-235.009,65.522-344.264,71.572-63.477,3.516-104.486-54.78-234.281-87.834-24.375-6.208-66.941-13.713-101.854-10.765-38.752,3.273-68.762,17.473-70.1,17.862-57.113,16.665-114.619,80.795-114.619,80.795v-165.415L-1337-9959.724v809.205Z" transform="translate(2617 9950)"/>
    </g>
  </g>
</svg>
